<?xml version="1.0" encoding="UTF-8"?>
<svg id="Wasp" xmlns="http://www.w3.org/2000/svg" viewBox="0 0 500 500">
  <g>
    <path d="M325,168.69c-22.68-19.96-52.7-53.39-57.24-93.42-.66-5.85-5.59-10.28-11.48-10.28h-16.62c-5.85,0-10.82,4.37-11.47,10.18-4.87,43.39-39.68,79.01-62.7,98.18-7.18,4.5-13.91,9.56-20.16,15.11-.2.13-.33.21-.33.21h.09c-29.26,26.11-47.55,63.07-47.55,104.08,0,79.1,67.92,143.22,151.71,143.22s151.7-64.12,151.7-143.22c0-53.04-30.56-99.31-75.95-124.06Z" fill="#f3b2b0"/>
    <circle cx="294.27" cy="250.48" r="6.33" fill="#b3404b"/>
    <circle cx="317.22" cy="273.27" r="6.33" fill="#b3404b"/>
    <circle cx="329.88" cy="228.13" r="6.33" fill="#b3404b"/>
    <circle cx="354.67" cy="256.81" r="6.33" fill="#b3404b"/>
    <circle cx="376.21" cy="260.61" r="6.33" fill="#b3404b"/>
    <circle cx="336.21" cy="203.33" r="6.33" fill="#b3404b"/>
    <circle cx="367.33" cy="231.82" r="6.33" fill="#b3404b"/>
    <path d="M326.52,167.73c-22.68-19.96-52.7-53.39-57.24-93.42-.66-5.85-5.59-10.28-11.48-10.28h-16.62c-5.85,0-10.82,4.37-11.47,10.18-4.87,43.39-39.68,79.01-62.7,98.18-7.18,4.5-13.91,9.56-20.16,15.11-.2.13-.33.21-.33.21h.09c-29.26,26.11-47.55,63.07-47.55,104.08,0,79.1,67.92,143.22,151.71,143.22s151.7-64.12,151.7-143.22c0-25.99-119.63,9.29-132.45-11.71-13.35-21.86,79.65-99.73,56.51-112.35Z" fill="#90687b"/>
  </g>
  <g>
    <ellipse id="Head" cx="334.19" cy="164.64" rx="32.38" ry="43.18" transform="translate(-10.7 305.51) rotate(-48.44)" fill="#5c5d60"/>
    <ellipse id="Thorax" cx="301.71" cy="201.29" rx="41.45" ry="30.75" transform="translate(-49.05 293.54) rotate(-48.44)" fill="#5c5d60"/>
    <path id="But" d="M301.12,274.74c-17.53,19.77-125.85,109.38-145.81,91.7-19.95-17.69,56.02-135.98,73.55-155.75s47.91-21.46,67.87-3.77c19.95,17.69,21.92,48.06,4.4,67.83Z" fill="#5c5d60"/>
    <ellipse id="Wing" cx="254.93" cy="318.18" rx="103.86" ry="48.28" transform="translate(-107.87 504.2) rotate(-78.44)" fill="#edcd73"/>
    <ellipse id="Eye" cx="356.69" cy="184.59" rx="21.59" ry="12.95" transform="translate(-18.05 329.06) rotate(-48.44)" fill="#97999c"/>
    <path d="M310.48,227.55l28.44-2.47c8.57-.74,16.52-4.74,22.23-11.18h0c5.57-6.29,13.3-10.26,21.66-11.13l17.84-1.85" fill="none" stroke="#5c5d60" stroke-linecap="round" stroke-miterlimit="10" stroke-width="5.18"/>
    <g id="Antene_group" data-name="Antene group">
      <ellipse cx="364.08" cy="151.21" rx="12.94" ry="6.37" transform="translate(9.41 323.35) rotate(-48.44)" fill="#5c5d60"/>
      <path d="M370.75,145.22h0c19.02-.8,34.92-14.72,38.24-33.46l2.15-12.11" fill="none" stroke="#5c5d60" stroke-linecap="round" stroke-miterlimit="10" stroke-width="5.18"/>
    </g>
    <path id="Leggy_bit" data-name="Leggy bit" d="M195.03,356.65l.29,2.8c1.04,9.96-2.16,19.9-8.8,27.39h0" fill="none" stroke="#5c5d60" stroke-linecap="round" stroke-miterlimit="10" stroke-width="5.18"/>
    <ellipse id="Wing-2" data-name="Wing" cx="190.31" cy="260.89" rx="103.86" ry="48.28" transform="translate(-72.77 73.61) rotate(-18.44)" fill="#edcd73"/>
    <ellipse id="Eye-2" data-name="Eye" cx="310.73" cy="143.84" rx="21.59" ry="12.95" transform="translate(-3.03 280.94) rotate(-48.44)" fill="#97999c"/>
    <path d="M273.62,194.88l-.96-28.53c-.29-8.59,2.73-16.97,8.43-23.41h0c5.57-6.29,8.59-14.44,8.45-22.84l-.3-17.94" fill="none" stroke="#5c5d60" stroke-linecap="round" stroke-miterlimit="10" stroke-width="5.18"/>
    <g id="Antene_group-2" data-name="Antene group">
      <ellipse cx="342.98" cy="132.51" rx="12.94" ry="6.37" transform="translate(16.31 301.26) rotate(-48.44)" fill="#5c5d60"/>
      <path d="M348.12,125.17h0c-1.48-18.97,10.42-36.43,28.63-41.98l11.76-3.58" fill="none" stroke="#5c5d60" stroke-linecap="round" stroke-miterlimit="10" stroke-width="5.18"/>
    </g>
    <path id="Leggy_bit-2" data-name="Leggy bit" d="M159.29,324.97l-2.82.05c-10.01.17-19.49,4.53-26.14,12.02h0" fill="none" stroke="#5c5d60" stroke-linecap="round" stroke-miterlimit="10" stroke-width="5.18"/>
  </g>
</svg>