<?xml version="1.0" encoding="UTF-8"?>
<svg id="Fig_template" data-name="Fig template" xmlns="http://www.w3.org/2000/svg" viewBox="0 0 500 500">
  <path d="M325,168.69c-22.68-19.96-52.7-53.39-57.24-93.42-.66-5.85-5.59-10.28-11.48-10.28h-16.62c-5.85,0-10.82,4.37-11.47,10.18-4.87,43.39-39.68,79.01-62.7,98.18-7.18,4.5-13.91,9.56-20.16,15.11-.2.13-.33.21-.33.21h.09c-29.26,26.11-47.55,63.07-47.55,104.08,0,79.1,67.92,143.22,151.71,143.22s151.7-64.12,151.7-143.22c0-53.04-30.56-99.31-75.95-124.06Z" fill="#f3b2b0"/>
  <circle cx="294.27" cy="250.48" r="6.33" fill="#b3404b"/>
  <circle cx="317.22" cy="273.27" r="6.33" fill="#b3404b"/>
  <circle cx="329.88" cy="228.13" r="6.33" fill="#b3404b"/>
  <circle cx="354.67" cy="256.81" r="6.33" fill="#b3404b"/>
  <circle cx="376.21" cy="260.61" r="6.33" fill="#b3404b"/>
  <circle cx="336.21" cy="203.33" r="6.33" fill="#b3404b"/>
  <circle cx="367.33" cy="231.82" r="6.33" fill="#b3404b"/>
  <path d="M326.52,167.73c-22.68-19.96-52.7-53.39-57.24-93.42-.66-5.85-5.59-10.28-11.48-10.28h-16.62c-5.85,0-10.82,4.37-11.47,10.18-4.87,43.39-39.68,79.01-62.7,98.18-7.18,4.5-13.91,9.56-20.16,15.11-.2.13-.33.21-.33.21h.09c-29.26,26.11-47.55,63.07-47.55,104.08,0,79.1,67.92,143.22,151.71,143.22s151.7-64.12,151.7-143.22c0-25.99-119.63,9.29-132.45-11.71-13.35-21.86,79.65-99.73,56.51-112.35Z" fill="#90687b"/>
</svg>