<?xml version="1.0" encoding="UTF-8"?>
<svg xmlns="http://www.w3.org/2000/svg" viewBox="0 0 500 500">
  <g id="Fig_template" data-name="Fig template">
    <g>
      <path d="M325,168.69c-22.68-19.96-52.7-53.39-57.24-93.42-.66-5.85-5.59-10.28-11.48-10.28h-16.62c-5.85,0-10.82,4.37-11.47,10.18-4.87,43.39-39.68,79.01-62.7,98.18-7.18,4.5-13.91,9.56-20.16,15.11-.2.13-.33.21-.33.21h.09c-29.26,26.11-47.55,63.07-47.55,104.08,0,79.1,67.92,143.22,151.71,143.22s151.7-64.12,151.7-143.22c0-53.04-30.56-99.31-75.95-124.06Z" fill="#f3b2b0"/>
      <circle cx="294.27" cy="250.48" r="6.33" fill="#b3404b"/>
      <circle cx="317.22" cy="273.27" r="6.33" fill="#b3404b"/>
      <circle cx="329.88" cy="228.13" r="6.33" fill="#`"/>
      <circle cx="354.67" cy="256.81" r="6.33" fill="#b3404b"/>
      <circle cx="376.21" cy="260.61" r="6.33" fill="#b3404b"/>
      <circle cx="336.21" cy="203.33" r="6.33" fill="#b3404b"/>
      <circle cx="367.33" cy="231.82" r="6.33" fill="#b3404b"/>
      <path d="M326.52,167.73c-22.68-19.96-52.7-53.39-57.24-93.42-.66-5.85-5.59-10.28-11.48-10.28h-16.62c-5.85,0-10.82,4.37-11.47,10.18-4.87,43.39-39.68,79.01-62.7,98.18-7.18,4.5-13.91,9.56-20.16,15.11-.2.13-.33.21-.33.21h.09c-29.26,26.11-47.55,63.07-47.55,104.08,0,79.1,67.92,143.22,151.71,143.22s151.7-64.12,151.7-143.22c0-25.99-119.63,9.29-132.45-11.71-13.35-21.86,79.65-99.73,56.51-112.35Z" fill="#90687b"/>
    </g>
  </g>
  <g id="Wasp">
    <g>
      <ellipse id="Head" cx="431.81" cy="140.52" rx="19.14" ry="25.53" transform="translate(40.22 370.43) rotate(-48.44)" fill="#5c5d60"/>
      <ellipse id="Thorax" cx="412.61" cy="162.18" rx="24.51" ry="18.18" transform="translate(17.54 363.36) rotate(-48.44)" fill="#5c5d60"/>
      <path id="But" d="M412.26,205.61c-10.36,11.69-74.41,64.67-86.21,54.21-11.8-10.46,33.12-80.4,43.48-92.08s28.33-12.69,40.12-2.23c11.8,10.46,12.96,28.41,2.6,40.1Z" fill="#5c5d60"/>
      <ellipse id="Wing" cx="384.95" cy="231.29" rx="61.4" ry="28.55" transform="translate(81.23 562.1) rotate(-78.44)" fill="#edcd73"/>
      <ellipse id="Eye" cx="445.11" cy="152.31" rx="12.76" ry="7.66" transform="translate(35.87 384.36) rotate(-48.44)" fill="#97999c"/>
      <path d="M417.79,177.71l16.81-1.46c5.06-.44,9.77-2.81,13.14-6.61h0c3.3-3.72,7.87-6.06,12.81-6.58l10.55-1.09" fill="none" stroke="#5c5d60" stroke-linecap="round" stroke-miterlimit="10" stroke-width="3.06"/>
      <g id="Antene_group" data-name="Antene group">
        <ellipse cx="449.48" cy="132.58" rx="7.65" ry="3.77" transform="translate(52.11 380.98) rotate(-48.44)" fill="#5c5d60"/>
        <path d="M453.42,129.04h0c11.24-.48,20.64-8.7,22.61-19.78l1.27-7.16" fill="none" stroke="#5c5d60" stroke-linecap="round" stroke-miterlimit="10" stroke-width="3.06"/>
      </g>
      <path id="Leggy_bit" data-name="Leggy bit" d="M349.54,254.04l.17,1.66c.61,5.89-1.28,11.76-5.2,16.19h0" fill="none" stroke="#5c5d60" stroke-linecap="round" stroke-miterlimit="10" stroke-width="3.06"/>
      <ellipse id="Wing-2" data-name="Wing" cx="346.74" cy="197.43" rx="61.4" ry="28.55" transform="translate(-44.65 119.84) rotate(-18.44)" fill="#edcd73"/>
      <ellipse id="Eye-2" data-name="Eye" cx="417.94" cy="128.22" rx="12.76" ry="7.66" transform="translate(44.75 355.91) rotate(-48.44)" fill="#97999c"/>
      <path d="M396,158.39l-.57-16.87c-.17-5.08,1.61-10.03,4.99-13.84h0c3.3-3.72,5.08-8.54,4.99-13.5l-.18-10.6" fill="none" stroke="#5c5d60" stroke-linecap="round" stroke-miterlimit="10" stroke-width="3.06"/>
      <g id="Antene_group-2" data-name="Antene group">
        <ellipse cx="437" cy="121.52" rx="7.65" ry="3.77" transform="translate(56.18 367.92) rotate(-48.44)" fill="#5c5d60"/>
        <path d="M440.05,117.18h0c-.88-11.22,6.16-21.54,16.93-24.82l6.95-2.12" fill="none" stroke="#5c5d60" stroke-linecap="round" stroke-miterlimit="10" stroke-width="3.06"/>
      </g>
      <path id="Leggy_bit-2" data-name="Leggy bit" d="M328.4,235.31l-1.66.03c-5.92.1-11.53,2.68-15.45,7.11h0" fill="none" stroke="#5c5d60" stroke-linecap="round" stroke-miterlimit="10" stroke-width="3.06"/>
    </g>
  </g>
</svg>