<?xml version="1.0" encoding="UTF-8"?>
<svg id="Wasp" xmlns="http://www.w3.org/2000/svg" version="1.1" viewBox="0 0 500 500">
  <!-- Generator: Adobe Illustrator 30.1.0, SVG Export Plug-In . SVG Version: 2.1.1 Build 136)  -->
  <defs>
    <style>
      .st0, .st1, .st2, .st3 {
        stroke: #5c5d60;
        stroke-miterlimit: 10;
      }

      .st0, .st2 {
        fill: #fff;
      }

      .st1, .st2 {
        stroke-linecap: round;
      }

      .st1, .st3 {
        fill: none;
      }
    </style>
  </defs>
  <path class="st3" d="M325,168.7c-22.7-20-52.7-53.4-57.2-93.4-.7-5.8-5.6-10.3-11.5-10.3h-16.6c-5.9,0-10.8,4.4-11.5,10.2-4.9,43.4-39.7,79-62.7,98.2-7.2,4.5-13.9,9.6-20.2,15.1-.2.1-.3.2-.3.2h0c-29.3,26.1-47.6,63.1-47.6,104.1,0,79.1,67.9,143.2,151.7,143.2s151.7-64.1,151.7-143.2-30.6-99.3-76-124.1Z"/>
  <circle class="st3" cx="294.3" cy="250.5" r="6.3"/>
  <circle class="st3" cx="317.2" cy="273.3" r="6.3"/>
  <circle class="st3" cx="329.9" cy="228.1" r="6.3"/>
  <circle class="st3" cx="354.7" cy="256.8" r="6.3"/>
  <circle class="st3" cx="376.2" cy="260.6" r="6.3"/>
  <circle class="st3" cx="336.2" cy="203.3" r="6.3"/>
  <circle class="st3" cx="367.3" cy="231.8" r="6.3"/>
  <path class="st3" d="M326.5,167.7c-22.7-20-52.7-53.4-57.2-93.4-.7-5.8-5.6-10.3-11.5-10.3h-16.6c-5.9,0-10.8,4.4-11.5,10.2-4.9,43.4-39.7,79-62.7,98.2-7.2,4.5-13.9,9.6-20.2,15.1-.2.1-.3.2-.3.2h0c-29.3,26.1-47.6,63.1-47.6,104.1,0,79.1,67.9,143.2,151.7,143.2s151.7-64.1,151.7-143.2-119.6,9.3-132.5-11.7c-13.4-21.9,79.6-99.7,56.5-112.4h0Z"/>
  <path class="st0" d="M355.7,140.4c-17.8-15.8-41.9-17.8-53.8-4.4-7.1,8-8.2,19.7-4.1,31.2-6.8,2.8-13.4,7.4-19,13.7-3.9,4.4-6.9,9.2-9.1,14-14.9-1.6-30.2,3.8-40.8,15.7-17.5,19.8-93.5,138.1-73.5,155.8,20,17.7,128.3-71.9,145.8-91.7h0c10.6-11.9,14.1-27.8,10.7-42.3,4.6-2.7,9-6.3,12.9-10.7,5.6-6.3,9.4-13.5,11.4-20.5,11.9,2.6,23.3.1,30.4-7.9,11.9-13.4,7-37.1-10.8-52.9Z"/>
  <ellipse id="Eye" class="st3" cx="356.7" cy="184.6" rx="21.6" ry="12.9" transform="translate(-18.1 329) rotate(-48.4)"/>
  <path class="st1" d="M310.5,227.6l28.4-2.5c8.6-.7,16.5-4.7,22.2-11.2h0c5.6-6.3,13.3-10.3,21.7-11.1l17.8-1.9"/>
  <ellipse class="st0" cx="364.1" cy="151.2" rx="12.9" ry="6.4" transform="translate(9.4 323.3) rotate(-48.4)"/>
  <path class="st2" d="M370.8,145.2h0c19-.8,34.9-14.7,38.2-33.5l2.1-12.1"/>
  <path id="Leggy_bit" class="st1" d="M195,356.6l.3,2.8c1,10-2.2,19.9-8.8,27.4h0"/>
  <path class="st0" d="M284.2,220c-15.7-18.3-61.1-20.9-109.2-4.9-54.4,18.1-91.7,53.4-83.3,78.7,8.4,25.3,59.4,31.1,113.8,12.9.9-.3,1.8-.6,2.7-.9-.2.9-.4,1.8-.6,2.7-11.5,56.2.4,106.1,26.5,111.4,26.1,5.3,56.6-35.9,68.1-92.1,10.2-49.7,2.1-94.5-18.1-107.9Z"/>
  <ellipse id="Eye-2" class="st3" cx="310.7" cy="143.9" rx="21.6" ry="12.9" transform="translate(-3 280.9) rotate(-48.4)"/>
  <path class="st1" d="M273.6,194.9l-1-28.5c-.3-8.6,2.7-17,8.4-23.4h0c5.6-6.3,8.6-14.4,8.5-22.8l-.3-17.9"/>
  <ellipse class="st0" cx="343" cy="132.5" rx="12.9" ry="6.4" transform="translate(16.3 301.3) rotate(-48.4)"/>
  <path class="st2" d="M348.1,125.2h0c-1.5-19,10.4-36.4,28.6-42l11.8-3.6"/>
  <path id="Leggy_bit-2" class="st1" d="M159.3,325h-2.8c-10,.2-19.5,4.6-26.1,12.1h0"/>
</svg>