<?xml version="1.0" encoding="UTF-8"?>
<svg id="svg6742" xmlns="http://www.w3.org/2000/svg" version="1.1" xmlns:cc="http://creativecommons.org/ns#" xmlns:dc="http://purl.org/dc/elements/1.1/" xmlns:rdf="http://www.w3.org/1999/02/22-rdf-syntax-ns#" xmlns:svg="http://www.w3.org/2000/svg" viewBox="0 0 1147 1147">
  <!-- Generator: Adobe Illustrator 30.1.0, SVG Export Plug-In . SVG Version: 2.1.1 Build 136)  -->
  <defs>
    <style>
      .st0 {
        fill: #97999c;
      }

      .st1 {
        stroke: #5c5d60;
        stroke-linecap: round;
        stroke-miterlimit: 10;
        stroke-width: 4.3px;
      }

      .st1, .st2 {
        fill: none;
      }

      .st3 {
        fill: #f3b2b0;
      }

      .st4 {
        fill: #fff;
      }

      .st5 {
        fill: #90687b;
      }

      .st6 {
        fill: #b3404b;
      }

      .st7 {
        fill: #edcd73;
      }

      .st8 {
        fill: #5c5d60;
      }
    </style>
  </defs>
  <rect class="st4" y="0" width="1147" height="1147"/>
  <g>
    <rect x="310" y="62" width="31" height="31"/>
    <rect x="372" y="62" width="31" height="31"/>
    <rect x="434" y="62" width="31" height="31"/>
    <rect x="496" y="62" width="31" height="31"/>
    <rect x="682" y="62" width="31" height="31"/>
    <rect x="775" y="62" width="31" height="31"/>
    <rect x="806" y="62" width="31" height="31"/>
    <rect x="310" y="93" width="31" height="31"/>
    <rect x="372" y="93" width="31" height="31"/>
    <rect x="403" y="93" width="31" height="31"/>
    <rect x="465" y="93" width="31" height="31"/>
    <rect x="496" y="93" width="31" height="31"/>
    <rect x="527" y="93" width="31" height="31"/>
    <rect x="558" y="93" width="31" height="31"/>
    <rect x="651" y="93" width="31" height="31"/>
    <rect x="744" y="93" width="31" height="31"/>
    <rect x="310" y="124" width="31" height="31"/>
    <rect x="403" y="124" width="31" height="31"/>
    <rect x="434" y="124" width="31" height="31"/>
    <rect x="496" y="124" width="31" height="31"/>
    <rect x="620" y="124" width="31" height="31"/>
    <rect x="682" y="124" width="31" height="31"/>
    <rect x="713" y="124" width="31" height="31"/>
    <rect x="775" y="124" width="31" height="31"/>
    <rect x="372" y="155" width="31" height="31"/>
    <rect x="403" y="155" width="31" height="31"/>
    <rect x="465" y="155" width="31" height="31"/>
    <rect x="527" y="155" width="31" height="31"/>
    <rect x="558" y="155" width="31" height="31"/>
    <rect x="651" y="155" width="31" height="31"/>
    <rect x="682" y="155" width="31" height="31"/>
    <rect x="775" y="155" width="31" height="31"/>
    <rect x="496" y="186" width="31" height="31"/>
    <rect x="589" y="186" width="31" height="31"/>
    <rect x="713" y="186" width="31" height="31"/>
    <rect x="744" y="186" width="31" height="31"/>
    <rect x="806" y="186" width="31" height="31"/>
    <rect x="310" y="217" width="31" height="31"/>
    <rect x="465" y="217" width="31" height="31"/>
    <rect x="496" y="217" width="31" height="31"/>
    <rect x="527" y="217" width="31" height="31"/>
    <rect x="713" y="217" width="31" height="31"/>
    <rect x="310" y="248" width="31" height="31"/>
    <rect x="372" y="248" width="31" height="31"/>
    <rect x="434" y="248" width="31" height="31"/>
    <rect x="496" y="248" width="31" height="31"/>
    <rect x="558" y="248" width="31" height="31"/>
    <rect x="620" y="248" width="31" height="31"/>
    <rect x="682" y="248" width="31" height="31"/>
    <rect x="744" y="248" width="31" height="31"/>
    <rect x="806" y="248" width="31" height="31"/>
    <rect x="310" y="279" width="31" height="31"/>
    <rect x="341" y="279" width="31" height="31"/>
    <rect x="465" y="279" width="31" height="31"/>
    <rect x="620" y="279" width="31" height="31"/>
    <rect x="713" y="279" width="31" height="31"/>
    <rect x="744" y="279" width="31" height="31"/>
    <rect x="806" y="279" width="31" height="31"/>
    <rect x="124" y="310" width="31" height="31"/>
    <rect x="155" y="310" width="31" height="31"/>
    <rect x="186" y="310" width="31" height="31"/>
    <rect x="248" y="310" width="31" height="31"/>
    <rect x="310" y="310" width="31" height="31"/>
    <rect x="403" y="310" width="31" height="31"/>
    <rect x="434" y="310" width="31" height="31"/>
    <rect x="496" y="310" width="31" height="31"/>
    <rect x="527" y="310" width="31" height="31"/>
    <rect x="558" y="310" width="31" height="31"/>
    <rect x="651" y="310" width="31" height="31"/>
    <rect x="744" y="310" width="31" height="31"/>
    <rect x="806" y="310" width="31" height="31"/>
    <rect x="837" y="310" width="31" height="31"/>
    <rect x="868" y="310" width="31" height="31"/>
    <rect x="899" y="310" width="31" height="31"/>
    <rect x="992" y="310" width="31" height="31"/>
    <rect x="1023" y="310" width="31" height="31"/>
    <rect x="1054" y="310" width="31" height="31"/>
    <rect x="62" y="341" width="31" height="31"/>
    <rect x="93" y="341" width="31" height="31"/>
    <rect x="155" y="341" width="31" height="31"/>
    <rect x="310" y="341" width="31" height="31"/>
    <rect x="341" y="341" width="31" height="31"/>
    <rect x="434" y="341" width="31" height="31"/>
    <rect x="465" y="341" width="31" height="31"/>
    <rect x="496" y="341" width="31" height="31"/>
    <rect x="589" y="341" width="31" height="31"/>
    <rect x="620" y="341" width="31" height="31"/>
    <rect x="775" y="341" width="31" height="31"/>
    <rect x="837" y="341" width="31" height="31"/>
    <rect x="868" y="341" width="31" height="31"/>
    <rect x="992" y="341" width="31" height="31"/>
    <rect x="1023" y="341" width="31" height="31"/>
    <rect x="1054" y="341" width="31" height="31"/>
    <rect x="62" y="372" width="31" height="31"/>
    <rect x="93" y="372" width="31" height="31"/>
    <rect x="124" y="372" width="31" height="31"/>
    <rect x="155" y="372" width="31" height="31"/>
    <rect x="186" y="372" width="31" height="31"/>
    <rect x="217" y="372" width="31" height="31"/>
    <rect x="248" y="372" width="31" height="31"/>
    <rect x="341" y="372" width="31" height="31"/>
    <rect x="589" y="372" width="31" height="31"/>
    <rect x="651" y="372" width="31" height="31"/>
    <rect x="682" y="372" width="31" height="31"/>
    <rect x="744" y="372" width="31" height="31"/>
    <rect x="806" y="372" width="31" height="31"/>
    <rect x="899" y="372" width="31" height="31"/>
    <rect x="961" y="372" width="31" height="31"/>
    <rect x="992" y="372" width="31" height="31"/>
    <rect x="93" y="403" width="31" height="31"/>
    <rect x="155" y="403" width="31" height="31"/>
    <rect x="279" y="403" width="31" height="31"/>
    <rect x="775" y="403" width="31" height="31"/>
    <rect x="806" y="403" width="31" height="31"/>
    <rect x="837" y="403" width="31" height="31"/>
    <rect x="992" y="403" width="31" height="31"/>
    <rect x="1023" y="403" width="31" height="31"/>
    <rect x="62" y="434" width="31" height="31"/>
    <rect x="93" y="434" width="31" height="31"/>
    <rect x="124" y="434" width="31" height="31"/>
    <rect x="155" y="434" width="31" height="31"/>
    <rect x="186" y="434" width="31" height="31"/>
    <rect x="248" y="434" width="31" height="31"/>
    <rect x="310" y="434" width="31" height="31"/>
    <rect x="372" y="434" width="31" height="31"/>
    <rect x="744" y="434" width="31" height="31"/>
    <rect x="806" y="434" width="31" height="31"/>
    <rect x="930" y="434" width="31" height="31"/>
    <rect x="961" y="434" width="31" height="31"/>
    <rect x="1054" y="434" width="31" height="31"/>
    <rect x="62" y="465" width="31" height="31"/>
    <rect x="124" y="465" width="31" height="31"/>
    <rect x="155" y="465" width="31" height="31"/>
    <rect x="186" y="465" width="31" height="31"/>
    <rect x="310" y="465" width="31" height="31"/>
    <rect x="341" y="465" width="31" height="31"/>
    <rect x="372" y="465" width="31" height="31"/>
    <rect x="775" y="465" width="31" height="31"/>
    <rect x="806" y="465" width="31" height="31"/>
    <rect x="837" y="465" width="31" height="31"/>
    <rect x="868" y="465" width="31" height="31"/>
    <rect x="899" y="465" width="31" height="31"/>
    <rect x="961" y="465" width="31" height="31"/>
    <rect x="1054" y="465" width="31" height="31"/>
    <rect x="62" y="496" width="31" height="31"/>
    <rect x="124" y="496" width="31" height="31"/>
    <rect x="186" y="496" width="31" height="31"/>
    <rect x="217" y="496" width="31" height="31"/>
    <rect x="248" y="496" width="31" height="31"/>
    <rect x="310" y="496" width="31" height="31"/>
    <rect x="744" y="496" width="31" height="31"/>
    <rect x="806" y="496" width="31" height="31"/>
    <rect x="837" y="496" width="31" height="31"/>
    <rect x="868" y="496" width="31" height="31"/>
    <rect x="961" y="496" width="31" height="31"/>
    <rect x="1023" y="496" width="31" height="31"/>
    <rect x="93" y="527" width="31" height="31"/>
    <rect x="124" y="527" width="31" height="31"/>
    <rect x="279" y="527" width="31" height="31"/>
    <rect x="341" y="527" width="31" height="31"/>
    <rect x="744" y="527" width="31" height="31"/>
    <rect x="806" y="527" width="31" height="31"/>
    <rect x="837" y="527" width="31" height="31"/>
    <rect x="868" y="527" width="31" height="31"/>
    <rect x="899" y="527" width="31" height="31"/>
    <rect x="930" y="527" width="31" height="31"/>
    <rect x="992" y="527" width="31" height="31"/>
    <rect x="1054" y="527" width="31" height="31"/>
    <rect x="93" y="558" width="31" height="31"/>
    <rect x="155" y="558" width="31" height="31"/>
    <rect x="248" y="558" width="31" height="31"/>
    <rect x="279" y="558" width="31" height="31"/>
    <rect x="341" y="558" width="31" height="31"/>
    <rect x="775" y="558" width="31" height="31"/>
    <rect x="806" y="558" width="31" height="31"/>
    <rect x="837" y="558" width="31" height="31"/>
    <rect x="899" y="558" width="31" height="31"/>
    <rect x="930" y="558" width="31" height="31"/>
    <rect x="961" y="558" width="31" height="31"/>
    <rect x="1023" y="558" width="31" height="31"/>
    <rect x="1054" y="558" width="31" height="31"/>
    <rect x="93" y="589" width="31" height="31"/>
    <rect x="217" y="589" width="31" height="31"/>
    <rect x="279" y="589" width="31" height="31"/>
    <rect x="372" y="589" width="31" height="31"/>
    <rect x="744" y="589" width="31" height="31"/>
    <rect x="775" y="589" width="31" height="31"/>
    <rect x="806" y="589" width="31" height="31"/>
    <rect x="837" y="589" width="31" height="31"/>
    <rect x="868" y="589" width="31" height="31"/>
    <rect x="899" y="589" width="31" height="31"/>
    <rect x="1054" y="589" width="31" height="31"/>
    <rect x="62" y="620" width="31" height="31"/>
    <rect x="93" y="620" width="31" height="31"/>
    <rect x="124" y="620" width="31" height="31"/>
    <rect x="155" y="620" width="31" height="31"/>
    <rect x="186" y="620" width="31" height="31"/>
    <rect x="217" y="620" width="31" height="31"/>
    <rect x="248" y="620" width="31" height="31"/>
    <rect x="279" y="620" width="31" height="31"/>
    <rect x="310" y="620" width="31" height="31"/>
    <rect x="341" y="620" width="31" height="31"/>
    <rect x="372" y="620" width="31" height="31"/>
    <rect x="806" y="620" width="31" height="31"/>
    <rect x="837" y="620" width="31" height="31"/>
    <rect x="899" y="620" width="31" height="31"/>
    <rect x="930" y="620" width="31" height="31"/>
    <rect x="992" y="620" width="31" height="31"/>
    <rect x="124" y="651" width="31" height="31"/>
    <rect x="155" y="651" width="31" height="31"/>
    <rect x="186" y="651" width="31" height="31"/>
    <rect x="279" y="651" width="31" height="31"/>
    <rect x="310" y="651" width="31" height="31"/>
    <rect x="341" y="651" width="31" height="31"/>
    <rect x="372" y="651" width="31" height="31"/>
    <rect x="744" y="651" width="31" height="31"/>
    <rect x="775" y="651" width="31" height="31"/>
    <rect x="806" y="651" width="31" height="31"/>
    <rect x="837" y="651" width="31" height="31"/>
    <rect x="961" y="651" width="31" height="31"/>
    <rect x="992" y="651" width="31" height="31"/>
    <rect x="1023" y="651" width="31" height="31"/>
    <rect x="1054" y="651" width="31" height="31"/>
    <rect x="62" y="682" width="31" height="31"/>
    <rect x="93" y="682" width="31" height="31"/>
    <rect x="248" y="682" width="31" height="31"/>
    <rect x="310" y="682" width="31" height="31"/>
    <rect x="775" y="682" width="31" height="31"/>
    <rect x="806" y="682" width="31" height="31"/>
    <rect x="930" y="682" width="31" height="31"/>
    <rect x="961" y="682" width="31" height="31"/>
    <rect x="1054" y="682" width="31" height="31"/>
    <rect x="62" y="713" width="31" height="31"/>
    <rect x="155" y="713" width="31" height="31"/>
    <rect x="217" y="713" width="31" height="31"/>
    <rect x="279" y="713" width="31" height="31"/>
    <rect x="310" y="713" width="31" height="31"/>
    <rect x="372" y="713" width="31" height="31"/>
    <rect x="899" y="713" width="31" height="31"/>
    <rect x="992" y="713" width="31" height="31"/>
    <rect x="1023" y="713" width="31" height="31"/>
    <rect x="1054" y="713" width="31" height="31"/>
    <rect x="62" y="744" width="31" height="31"/>
    <rect x="124" y="744" width="31" height="31"/>
    <rect x="248" y="744" width="31" height="31"/>
    <rect x="434" y="744" width="31" height="31"/>
    <rect x="496" y="744" width="31" height="31"/>
    <rect x="589" y="744" width="31" height="31"/>
    <rect x="620" y="744" width="31" height="31"/>
    <rect x="651" y="744" width="31" height="31"/>
    <rect x="775" y="744" width="31" height="31"/>
    <rect x="806" y="744" width="31" height="31"/>
    <rect x="899" y="744" width="31" height="31"/>
    <rect x="930" y="744" width="31" height="31"/>
    <rect x="62" y="775" width="31" height="31"/>
    <rect x="124" y="775" width="31" height="31"/>
    <rect x="186" y="775" width="31" height="31"/>
    <rect x="310" y="775" width="31" height="31"/>
    <rect x="341" y="775" width="31" height="31"/>
    <rect x="403" y="775" width="31" height="31"/>
    <rect x="496" y="775" width="31" height="31"/>
    <rect x="527" y="775" width="31" height="31"/>
    <rect x="589" y="775" width="31" height="31"/>
    <rect x="620" y="775" width="31" height="31"/>
    <rect x="651" y="775" width="31" height="31"/>
    <rect x="682" y="775" width="31" height="31"/>
    <rect x="713" y="775" width="31" height="31"/>
    <rect x="744" y="775" width="31" height="31"/>
    <rect x="775" y="775" width="31" height="31"/>
    <rect x="930" y="775" width="31" height="31"/>
    <rect x="992" y="775" width="31" height="31"/>
    <rect x="1054" y="775" width="31" height="31"/>
    <rect x="62" y="806" width="31" height="31"/>
    <rect x="124" y="806" width="31" height="31"/>
    <rect x="155" y="806" width="31" height="31"/>
    <rect x="217" y="806" width="31" height="31"/>
    <rect x="248" y="806" width="31" height="31"/>
    <rect x="279" y="806" width="31" height="31"/>
    <rect x="310" y="806" width="31" height="31"/>
    <rect x="341" y="806" width="31" height="31"/>
    <rect x="496" y="806" width="31" height="31"/>
    <rect x="682" y="806" width="31" height="31"/>
    <rect x="744" y="806" width="31" height="31"/>
    <rect x="775" y="806" width="31" height="31"/>
    <rect x="806" y="806" width="31" height="31"/>
    <rect x="837" y="806" width="31" height="31"/>
    <rect x="868" y="806" width="31" height="31"/>
    <rect x="899" y="806" width="31" height="31"/>
    <rect x="930" y="806" width="31" height="31"/>
    <rect x="1023" y="806" width="31" height="31"/>
    <rect x="1054" y="806" width="31" height="31"/>
    <rect x="310" y="837" width="31" height="31"/>
    <rect x="341" y="837" width="31" height="31"/>
    <rect x="372" y="837" width="31" height="31"/>
    <rect x="434" y="837" width="31" height="31"/>
    <rect x="527" y="837" width="31" height="31"/>
    <rect x="620" y="837" width="31" height="31"/>
    <rect x="651" y="837" width="31" height="31"/>
    <rect x="682" y="837" width="31" height="31"/>
    <rect x="713" y="837" width="31" height="31"/>
    <rect x="775" y="837" width="31" height="31"/>
    <rect x="806" y="837" width="31" height="31"/>
    <rect x="930" y="837" width="31" height="31"/>
    <rect x="992" y="837" width="31" height="31"/>
    <rect x="1023" y="837" width="31" height="31"/>
    <rect x="1054" y="837" width="31" height="31"/>
    <rect x="465" y="868" width="31" height="31"/>
    <rect x="527" y="868" width="31" height="31"/>
    <rect x="651" y="868" width="31" height="31"/>
    <rect x="713" y="868" width="31" height="31"/>
    <rect x="775" y="868" width="31" height="31"/>
    <rect x="806" y="868" width="31" height="31"/>
    <rect x="868" y="868" width="31" height="31"/>
    <rect x="930" y="868" width="31" height="31"/>
    <rect x="992" y="868" width="31" height="31"/>
    <rect x="341" y="899" width="31" height="31"/>
    <rect x="372" y="899" width="31" height="31"/>
    <rect x="465" y="899" width="31" height="31"/>
    <rect x="496" y="899" width="31" height="31"/>
    <rect x="527" y="899" width="31" height="31"/>
    <rect x="558" y="899" width="31" height="31"/>
    <rect x="589" y="899" width="31" height="31"/>
    <rect x="713" y="899" width="31" height="31"/>
    <rect x="744" y="899" width="31" height="31"/>
    <rect x="775" y="899" width="31" height="31"/>
    <rect x="806" y="899" width="31" height="31"/>
    <rect x="930" y="899" width="31" height="31"/>
    <rect x="992" y="899" width="31" height="31"/>
    <rect x="1023" y="899" width="31" height="31"/>
    <rect x="310" y="930" width="31" height="31"/>
    <rect x="403" y="930" width="31" height="31"/>
    <rect x="434" y="930" width="31" height="31"/>
    <rect x="527" y="930" width="31" height="31"/>
    <rect x="651" y="930" width="31" height="31"/>
    <rect x="713" y="930" width="31" height="31"/>
    <rect x="806" y="930" width="31" height="31"/>
    <rect x="837" y="930" width="31" height="31"/>
    <rect x="868" y="930" width="31" height="31"/>
    <rect x="899" y="930" width="31" height="31"/>
    <rect x="930" y="930" width="31" height="31"/>
    <rect x="961" y="930" width="31" height="31"/>
    <rect x="310" y="961" width="31" height="31"/>
    <rect x="341" y="961" width="31" height="31"/>
    <rect x="372" y="961" width="31" height="31"/>
    <rect x="465" y="961" width="31" height="31"/>
    <rect x="496" y="961" width="31" height="31"/>
    <rect x="527" y="961" width="31" height="31"/>
    <rect x="589" y="961" width="31" height="31"/>
    <rect x="651" y="961" width="31" height="31"/>
    <rect x="682" y="961" width="31" height="31"/>
    <rect x="713" y="961" width="31" height="31"/>
    <rect x="744" y="961" width="31" height="31"/>
    <rect x="806" y="961" width="31" height="31"/>
    <rect x="930" y="961" width="31" height="31"/>
    <rect x="992" y="961" width="31" height="31"/>
    <rect x="1023" y="961" width="31" height="31"/>
    <rect x="310" y="992" width="31" height="31"/>
    <rect x="341" y="992" width="31" height="31"/>
    <rect x="372" y="992" width="31" height="31"/>
    <rect x="496" y="992" width="31" height="31"/>
    <rect x="527" y="992" width="31" height="31"/>
    <rect x="558" y="992" width="31" height="31"/>
    <rect x="682" y="992" width="31" height="31"/>
    <rect x="775" y="992" width="31" height="31"/>
    <rect x="806" y="992" width="31" height="31"/>
    <rect x="837" y="992" width="31" height="31"/>
    <rect x="868" y="992" width="31" height="31"/>
    <rect x="341" y="1023" width="31" height="31"/>
    <rect x="403" y="1023" width="31" height="31"/>
    <rect x="527" y="1023" width="31" height="31"/>
    <rect x="558" y="1023" width="31" height="31"/>
    <rect x="620" y="1023" width="31" height="31"/>
    <rect x="682" y="1023" width="31" height="31"/>
    <rect x="713" y="1023" width="31" height="31"/>
    <rect x="775" y="1023" width="31" height="31"/>
    <rect x="837" y="1023" width="31" height="31"/>
    <rect x="899" y="1023" width="31" height="31"/>
    <rect x="992" y="1023" width="31" height="31"/>
    <rect x="403" y="1054" width="31" height="31"/>
    <rect x="434" y="1054" width="31" height="31"/>
    <rect x="496" y="1054" width="31" height="31"/>
    <rect x="558" y="1054" width="31" height="31"/>
    <rect x="651" y="1054" width="31" height="31"/>
    <rect x="682" y="1054" width="31" height="31"/>
    <rect x="806" y="1054" width="31" height="31"/>
    <rect x="868" y="1054" width="31" height="31"/>
    <rect x="961" y="1054" width="31" height="31"/>
    <rect x="1023" y="1054" width="31" height="31"/>
    <g>
      <rect class="st2" x="94.6" y="94.6" width="151.9" height="151.9"/>
      <path d="M246.5,62H62v217h217V62h-32.6ZM246.5,246.5H94.6V94.6h151.9v151.9Z"/>
    </g>
    <g>
      <rect class="st2" x="900.6" y="94.6" width="151.9" height="151.9"/>
      <path d="M1052.5,62h-184.5v217h217V62h-32.6ZM1052.5,246.5h-151.9V94.6h151.9v151.9Z"/>
    </g>
    <g>
      <rect class="st2" x="94.6" y="900.6" width="151.9" height="151.9"/>
      <path d="M246.5,868H62v217h217v-217h-32.6ZM246.5,1052.5H94.6v-151.9h151.9v151.9Z"/>
    </g>
    <rect x="124" y="124" width="93" height="93"/>
    <rect x="930" y="124" width="93" height="93"/>
    <rect x="124" y="930" width="93" height="93"/>
  </g>
  <g>
    <g>
      <path class="st3" d="M634.9,506.2c-18.8-16.5-43.6-44.2-47.4-77.4-.5-4.8-4.6-8.5-9.5-8.5h-13.8c-4.8,0-9,3.6-9.5,8.4-4,35.9-32.9,65.4-51.9,81.3-5.9,3.7-11.5,7.9-16.7,12.5-.2.1-.3.2-.3.2h0c-24.2,21.6-39.4,52.2-39.4,86.2,0,65.5,56.2,118.6,125.6,118.6s125.6-53.1,125.6-118.6-25.3-82.2-62.9-102.7Z"/>
      <circle class="st6" cx="609.5" cy="573.9" r="5.2"/>
      <circle class="st6" cx="628.5" cy="592.8" r="5.2"/>
      <circle class="st6" cx="638.9" cy="555.4" r="5.2"/>
      <circle class="st6" cx="659.5" cy="579.1" r="5.2"/>
      <circle class="st6" cx="677.3" cy="582.3" r="5.2"/>
      <circle class="st6" cx="644.2" cy="534.9" r="5.2"/>
      <circle class="st6" cx="669.9" cy="558.4" r="5.2"/>
      <path class="st5" d="M636.2,505.4c-18.8-16.5-43.6-44.2-47.4-77.4-.5-4.8-4.6-8.5-9.5-8.5h-13.8c-4.8,0-9,3.6-9.5,8.4-4,35.9-32.9,65.4-51.9,81.3-5.9,3.7-11.5,7.9-16.7,12.5-.2.1-.3.2-.3.2h0c-24.2,21.6-39.4,52.2-39.4,86.2,0,65.5,56.2,118.6,125.6,118.6s125.6-53.1,125.6-118.6-99.1,7.7-109.7-9.7c-11.1-18.1,66-82.6,46.8-93h0Z"/>
    </g>
    <g>
      <ellipse id="Head" class="st8" cx="642.5" cy="502.8" rx="26.8" ry="35.8" transform="translate(-160 650) rotate(-48.4)"/>
      <ellipse id="Thorax" class="st8" cx="615.6" cy="533.2" rx="34.3" ry="25.5" transform="translate(-191.7 640.1) rotate(-48.4)"/>
      <path id="But" class="st8" d="M615.1,594c-14.5,16.4-104.2,90.6-120.7,75.9-16.5-14.6,46.4-112.6,60.9-129,14.5-16.4,39.7-17.8,56.2-3.1,16.5,14.6,18.2,39.8,3.6,56.2h0Z"/>
      <ellipse id="Wing" class="st7" cx="576.9" cy="630" rx="86" ry="40" transform="translate(-155.9 1068.9) rotate(-78.4)"/>
      <ellipse id="Eye" class="st0" cx="661.1" cy="519.4" rx="17.9" ry="10.7" transform="translate(-166.1 669.5) rotate(-48.4)"/>
      <path class="st1" d="M622.9,554.9l23.6-2c7.1-.6,13.7-3.9,18.4-9.3h0c4.6-5.2,11-8.5,17.9-9.2l14.8-1.5"/>
      <g id="Antene_group">
        <ellipse class="st8" cx="667.3" cy="491.7" rx="10.7" ry="5.3" transform="translate(-143.3 664.8) rotate(-48.4)"/>
        <path class="st1" d="M672.8,486.7h0c15.8-.7,28.9-12.2,31.7-27.7l1.8-10"/>
      </g>
      <path id="Leggy_bit" class="st1" d="M527.3,661.8l.2,2.3c.9,8.2-1.8,16.5-7.3,22.7h0"/>
      <ellipse id="Wing-2" class="st7" cx="523.3" cy="582.5" rx="86" ry="40" transform="translate(-157.4 195.5) rotate(-18.4)"/>
      <ellipse id="Eye-2" class="st0" cx="623.1" cy="485.6" rx="17.9" ry="10.7" transform="translate(-153.6 629.7) rotate(-48.4)"/>
      <path class="st1" d="M592.4,527.9l-.8-23.6c-.2-7.1,2.3-14.1,7-19.4h0c4.6-5.2,7.1-12,7-18.9l-.2-14.9"/>
      <g id="Antene_group-2">
        <ellipse class="st8" cx="649.8" cy="476.2" rx="10.7" ry="5.3" transform="translate(-137.6 646.5) rotate(-48.4)"/>
        <path class="st1" d="M654,470.1h0c-1.2-15.7,8.6-30.2,23.7-34.8l9.7-3"/>
      </g>
      <path id="Leggy_bit-2" class="st1" d="M497.7,635.6h-2.3c-8.3.2-16.1,3.8-21.6,10h0"/>
    </g>
  </g>
</svg>